<svg width="20" height="20" viewBox="0 0 20 20" fill="none" xmlns="http://www.w3.org/2000/svg">
<g clip-path="url(#clip0_2_514)">
<path d="M15.0778 18.8889H4.92225C4.70847 18.8838 4.49778 18.8367 4.30221 18.7502C4.10665 18.6637 3.93004 18.5395 3.78249 18.3848C3.63493 18.23 3.51932 18.0477 3.44226 17.8482C3.3652 17.6487 3.32819 17.436 3.33336 17.2222V6.23889H4.44447V17.2222C4.43917 17.2901 4.44734 17.3584 4.46851 17.4231C4.48968 17.4878 4.52344 17.5477 4.56784 17.5994C4.61224 17.651 4.66641 17.6933 4.72723 17.7239C4.78806 17.7546 4.85433 17.7729 4.92225 17.7778H15.0778C15.1457 17.7729 15.212 17.7546 15.2728 17.7239C15.3336 17.6933 15.3878 17.651 15.4322 17.5994C15.4766 17.5477 15.5104 17.4878 15.5315 17.4231C15.5527 17.3584 15.5609 17.2901 15.5556 17.2222V6.23889H16.6667V17.2222C16.6719 17.436 16.6349 17.6487 16.5578 17.8482C16.4807 18.0477 16.3651 18.23 16.2176 18.3848C16.07 18.5395 15.8934 18.6637 15.6978 18.7502C15.5023 18.8367 15.2916 18.8838 15.0778 18.8889Z" fill="black"/>
<path d="M17.0999 5H2.77772C2.63038 5 2.48907 4.94147 2.38489 4.83728C2.2807 4.73309 2.22217 4.59178 2.22217 4.44444C2.22217 4.2971 2.2807 4.15579 2.38489 4.0516C2.48907 3.94742 2.63038 3.88889 2.77772 3.88889H17.0999C17.2473 3.88889 17.3886 3.94742 17.4928 4.0516C17.597 4.15579 17.6555 4.2971 17.6555 4.44444C17.6555 4.59178 17.597 4.73309 17.4928 4.83728C17.3886 4.94147 17.2473 5 17.0999 5Z" fill="black"/>
<path d="M11.6666 7.22223H12.7777V15.5556H11.6666V7.22223Z" fill="black"/>
<path d="M7.22217 7.22223H8.33328V15.5556H7.22217V7.22223Z" fill="black"/>
<path d="M12.7777 3.25556H11.7222V2.22223H8.27772V3.25556H7.22217V2.22223C7.22181 1.93692 7.33122 1.66241 7.52772 1.45556C7.72423 1.24871 7.99277 1.12538 8.27772 1.11111H11.7222C12.0071 1.12538 12.2757 1.24871 12.4722 1.45556C12.6687 1.66241 12.7781 1.93692 12.7777 2.22223V3.25556Z" fill="black"/>
</g>
<defs>
<clipPath id="clip0_2_514">
<rect width="20" height="20" fill="white"/>
</clipPath>
</defs>
</svg>
